<svg id="레이어_1" data-name="레이어 1" xmlns="http://www.w3.org/2000/svg" viewBox="0 0 283.46 107.94"><defs><style>.cls-1{fill:#00a33d;}.cls-1,.cls-2,.cls-3,.cls-4,.cls-5{stroke:#231815;stroke-miterlimit:10;}.cls-2{fill:#ea5504;}.cls-3{fill:#ffe300;}.cls-4{fill:#0092d2;}.cls-5{fill:#db131b;}</style></defs><path class="cls-1" d="M246.45,0c8.48,2.35,17.57,2.76,25.71,6,3.37,1.34,6.61,5.38,8,8.93,2.74,7.1-2,12.76-9.53,12.37-3.76-.19-7.49-1.22-11.24-1.31-4.65-.12-8.76,1.06-10.6,6.24s.84,8.22,4.45,10.72c4.38,3,9,5.71,13.64,8.38C280,58.87,285.17,71.7,283,83.75s-13.55,21.45-28.35,22.17c-12.77.62-25.67-.34-38.43-1.53-2.87-.27-6.68-3.87-7.84-6.81-4.9-12.4,1.49-21.06,14.71-21.08,2.64,0,5.66,0,7.81-1.23,2.63-1.5,6-4.08,6.34-6.58s-2.09-6-4.29-8c-3.25-2.95-7.5-4.75-11.09-7.36-11.93-8.68-17.19-20.73-13.79-32.21C212.1,7.46,223,2.64,235.78.6c3.5-.56,7.11-.39,10.67-.6Z"/><path class="cls-2" d="M207.19,107.94h0a15.45,15.45,0,0,1-15.41-15.41h0a15.45,15.45,0,0,1,15.41-15.41h0A15.45,15.45,0,0,1,222.6,92.53h0A15.45,15.45,0,0,1,207.19,107.94Z"/><path class="cls-3" d="M218.17,36.36c-1.32,11.27-2.18,22.62-4,33.8-5.18,31-23.15,40.65-54.52,32.7C144.35,99,136.27,89.22,135.47,76.91c-.26-4,1-6.85,4.87-7.42a69.91,69.91,0,0,1,15-.71c1.71.12,4.28,2.64,4.65,4.43,1.5,7.3,7.09,5.32,11.66,5.8,5.31.55,5.33-3.53,6.08-7,.09-.44.11-.89.17-1.33,1.56-11.51,1.56-11.64-10.1-11.84s-21.4-3.79-26.37-14.73c-5.59-12.29-6.09-25.07.73-37.28,2.92-5.22,8-6.44,13.77-6.34,17.47.33,18.71,1.76,16.69,19.06-.51,4.34-1,9.2.51,13.09,1.05,2.8,5.12,4.88,8.3,6.14.71.29,4.36-4,4.85-6.48a233,233,0,0,0,2.92-23.16c.43-4.76,3-6.72,7.38-6.73,5.34,0,10.69.29,16,.38,4,.08,5.48,2.32,5.33,6.05,0,.89.07,1.78,0,2.67-.31,8.24.52,16.56.19,24.8Z"/><path class="cls-2" d="M146.53,107.94h0a15.45,15.45,0,0,1-15.41-15.41h0a15.45,15.45,0,0,1,15.41-15.41h0a15.45,15.45,0,0,1,15.41,15.41h0A15.45,15.45,0,0,1,146.53,107.94Z"/><path class="cls-4" d="M98,73.71c-.29,5.68-.57,11.36-1,17-.71,10.39-1.36,11-11.72,11.66-.67,0-1.34,0-2,.06-16.53.23-17.92-1-17.09-17.27,1.3-25.61,3-51.19,4.31-76.79.3-5.85,2.82-7.95,8.73-8.2C107.6-1,102.43,3.09,108.46,20.9c3,8.82,5.69,17.72,8.5,26.59a1.34,1.34,0,0,0,1.4.92l.55,0a1.33,1.33,0,0,0,1.18-1.18,61.93,61.93,0,0,0,.73-8c-.17-10.25-.53-20.5-.91-30.75-.19-4.95,1.44-7.13,7-6.88,26.31,1.18,22.5,3.29,22,22.69-.57,24.05-2.42,48.08-3.41,72.13-.28,7.06-3.9,9.21-10.15,9h-.67c-20.48.11-21.54-.81-27-20.42-1.13-4.07-2.58-8-4-12Z"/><path class="cls-5" d="M78.53,83.58V96.29c0,5-2.62,7.24-7.49,7.26-4.46,0-9-.3-13.36.31-7.8,1.08-10.92-3.12-12.36-9.77-.47-2.17-.51-4.59-1.56-6.44-.81-1.44-2.87-3-4.38-3s-3.22,1.68-4.7,2.81c-.38.3-.58,1.28-.8,1.9-1.68,4.51,1.16,12-5.27,13-8.13,1.26-16.68.67-24.91-.32-1.63-.2-3.87-5.86-3.69-8.88C1.08,74.74,2.35,56.31,4.4,38c1-9.44,3.88-18.69,5.84-28C11.52,3.86,15.19.59,21.41.57,34.3.52,47.21.23,60.06,1c2.72.16,6.77,4,7.52,6.85a361.26,361.26,0,0,1,8,37.8c1.87,12.53,1.79,25.3,2.93,37.94C78.32,83.6,78.75,83.57,78.53,83.58Zm-47-35c.1,0-.1.42,0,.43-.16,2.45,0,4.49-.19,6.93-.46,5.3,2.67,7.41,7.24,7.38s9.5-.48,9.29-6.86a177.22,177.22,0,0,0-1.69-22.6c-.34-2.09-4.14-5.18-6.16-5-2.43.16-5.94,2.89-6.68,5.23C31.84,38.57,32,43.65,31.48,48.53Z"/></svg>