<svg xmlns="http://www.w3.org/2000/svg" viewBox="0 0 44.59 28.42"><defs><style>.cls-1{fill:#fff;stroke:#000;stroke-miterlimit:10;}</style></defs><g id="레이어_2" data-name="레이어 2"><g id="레이어_1-2" data-name="레이어 1"><path class="cls-1" d="M44.09,18.65v-3.1a1,1,0,0,0-1-1H19.29a1,1,0,0,0-1,1V26.92a1,1,0,0,0,1,1H38.16a1,1,0,0,0,1-1V23.77a1,1,0,0,0-1-1H25.09a1,1,0,0,1-1-1V20.65a1,1,0,0,1,1-1h18A1,1,0,0,0,44.09,18.65Z"/><path class="cls-1" d="M1.5.5a1,1,0,0,0-1,1v20a1,1,0,0,0,1,1H15.29a1,1,0,0,0,1-1v-3a1,1,0,0,0-1-1H6.42a1,1,0,0,1-1-1V6.59a1,1,0,0,1,1-1H16.7a1,1,0,0,1,1,1v5.08a1,1,0,0,0,1,1h3.36a1,1,0,0,0,1-1V1.5a1,1,0,0,0-1-1Z"/></g></g></svg>